<svg width="150" height="28" viewBox="0 0 150 28" fill="none" xmlns="http://www.w3.org/2000/svg"><path class="logo-just" fill-rule="evenodd" clip-rule="evenodd" d="M9.927 28c-1.2.006-2.388-.174-3.527-.54a11.616 11.616 0 01-3.006-1.462 10.08 10.08 0 01-2.303-2.193 8.086 8.086 0 01-1.018-1.738A1.091 1.091 0 010 21.67a.9.9 0 01.09-.395.997.997 0 01.237-.336 1.07 1.07 0 01.352-.216l6.012-2.283c.23-.09.485-.102.715-.024.236.072.436.228.564.431.072.114.151.228.236.33.133.156.303.282.497.366.188.084.4.12.612.113.594 0 .994-.197 1.2-.593.206-.395.31-.905.31-1.522V1.031A1.027 1.027 0 0111.86 0h7.17c.139-.001.272.023.4.077.127.054.242.126.339.222.097.096.17.21.224.335a.98.98 0 01.079.396v16.127a18.362 18.362 0 01-.406 3.77 9.19 9.19 0 01-1.534 3.494c-.751 1.055-1.781 1.912-3.103 2.577C13.727 27.664 12.018 28 9.927 28zM35.946 27.233c-.273 0-.54-.108-.74-.3a1.028 1.028 0 01-.303-.73v-1.2h-.073c-.515.744-1.285 1.39-2.303 1.942-1.024.552-2.188.827-3.509.827-1.442 0-2.63-.252-3.563-.749a6.257 6.257 0 01-2.23-1.966 7.63 7.63 0 01-1.164-2.726 14.018 14.018 0 01-.328-3.021V8.03a.98.98 0 01.08-.395 1.011 1.011 0 01.558-.557c.126-.054.265-.078.399-.078h6.897c.14 0 .272.024.4.078.12.054.236.126.333.222.097.096.17.21.224.335a.98.98 0 01.08.396v9.66c0 1.026.163 1.745.484 2.158.321.408.806.618 1.448.618.285.006.564-.054.813-.18.254-.126.472-.306.636-.534.376-.473.563-1.156.563-2.055V8.03c0-.138.025-.27.08-.396.054-.126.133-.24.224-.335a.976.976 0 01.339-.222c.127-.054.26-.078.4-.078h6.86a1.028 1.028 0 011.042 1.03v18.184a1.025 1.025 0 01-1.03 1.025l-6.617-.006zM62.588 20.808c0 1.36-.291 2.499-.873 3.422a6.923 6.923 0 01-2.212 2.211 9.485 9.485 0 01-2.921 1.193c-.994.234-2.006.36-3.025.366-1.751 0-3.49-.252-5.17-.75A14.486 14.486 0 0145 25.788a1.109 1.109 0 01-.321-.306.934.934 0 01-.158-.413.995.995 0 01.024-.444c.043-.143.115-.275.212-.39l2.958-3.403c.17-.192.4-.318.667-.348.254-.03.515.036.727.18.454.312.94.57 1.454.779.764.33 1.582.51 2.419.521.303 0 .6-.053.872-.173a.634.634 0 00.406-.636c0-.335-.236-.599-.715-.79-.479-.192-1.309-.432-2.497-.714a11.625 11.625 0 01-1.976-.671 7.06 7.06 0 01-1.842-1.175 5.948 5.948 0 01-1.376-1.792c-.363-.707-.545-1.546-.545-2.517 0-1.306.29-2.427.873-3.344a7.224 7.224 0 012.212-2.247 9.87 9.87 0 012.903-1.271c.97-.258 1.963-.396 2.963-.402 1.588 0 3.17.234 4.691.696 1.146.341 1.916.79 2.74 1.336.115.078.218.18.29.294a.973.973 0 01.158.383c.024.138.024.276-.006.414-.03.138-.09.264-.17.377l-2.448 3.327a1.035 1.035 0 01-.6.401c-.242.06-.497.024-.727-.09a8.619 8.619 0 00-1.206-.527 6.142 6.142 0 00-1.976-.348 2.92 2.92 0 00-1.085.174c-.285.114-.424.342-.424.671 0 .258.157.456.485.594.32.144 1.066.33 2.23.557.806.156 1.588.396 2.345.713.74.306 1.437.725 2.055 1.229a5.603 5.603 0 011.448 1.828c.346.719.528 1.57.528 2.547zM73.897 27.766c-2.74 0-4.764-.581-6.085-1.75-1.315-1.169-1.975-2.979-1.975-5.442v-6.197c0-.275-.11-.533-.304-.73-.194-.193-.46-.3-.739-.3h-.776c-.279 0-.54-.108-.733-.306a1 1 0 01-.303-.725V8.03c0-.276.109-.534.303-.732.194-.191.46-.3.74-.3h.745a1.028 1.028 0 001.042-1.03V3.494c0-.138.025-.27.079-.396.055-.126.127-.24.224-.335a.976.976 0 01.34-.222.991.991 0 01.4-.078h6.594c.272 0 .539.108.739.3.194.191.303.455.303.73V5.97c0 .138.024.27.079.395.048.126.127.24.224.336a1.012 1.012 0 00.733.3h2.322a1.028 1.028 0 011.042 1.03v4.286a.98.98 0 01-.079.395c-.054.126-.127.24-.224.336a.976.976 0 01-.34.221.99.99 0 01-.4.079h-2.333a1.028 1.028 0 00-1.036 1.03v4.357c0 .977.212 1.636.636 1.984.43.348 1.012.521 1.764.521.333.012.679.006 1.018-.018.576-.095 1.079.3 1.188.87a11.952 11.952 0 001.09 3.164c.267.557.183 1.18-.363 1.474-2.321 1.235-5.103 1.043-5.915 1.037z" fill="#fff"></path>
<mask id="a" style="mask-type:alpha" maskUnits="userSpaceOnUse" x="80" y="6" width="70" height="22"><path fill-rule="evenodd" clip-rule="evenodd" d="M149.683 14.551a9.49 9.49 0 0 0-1.838-3.62 10.476 10.476 0 0 0-3.16-2.583 13.175 13.175 0 0 0-4.066-1.396 13.114 13.114 0 0 0-4.274-.048 10.5 10.5 0 0 0-3.853 1.366 9.837 9.837 0 0 0-2.971 2.787c-.828 1.163-1.382 2.553-1.668 4.171-.292 1.643-.256 3.153.109 4.537a9.807 9.807 0 0 0 1.821 3.656 10.46 10.46 0 0 0 3.135 2.613 13.184 13.184 0 0 0 8.346 1.445c1.376-.21 2.691-.69 3.878-1.397a9.763 9.763 0 0 0 2.995-2.823c.834-1.174 1.388-2.583 1.686-4.225.274-1.618.232-3.11-.14-4.483Zm-6.197 2.5c.073.023.14.053.189.101a.681.681 0 0 1 .14.174.51.51 0 0 1 .048.21.456.456 0 0 1-.036.216c-.804 1.977-3.233 3.56-5.82 2.798-2.8-.827-4.219-2.948-3.774-5.591a.558.558 0 0 1 .243-.366.574.574 0 0 1 .213-.078.485.485 0 0 1 .226.018l8.571 2.517ZM112.049 6.994a1.08 1.08 0 0 1 .743.3c.091.096.17.21.225.335.049.126.073.258.073.396V9.23h.079c.518-.744 1.291-1.39 2.314-1.942 1.028-.552 2.197-.827 3.518-.827 1.425 0 2.618.257 3.562.767a6.36 6.36 0 0 1 2.252 1.984 7.56 7.56 0 0 1 1.169 2.714c.219.99.329 1.99.329 3.003v11.285c0 .27-.11.534-.305.725-.195.192-.456.3-.736.3h-6.934a1.06 1.06 0 0 1-.743-.3 1.021 1.021 0 0 1-.304-.725v-9.757c0-1.025-.159-1.744-.487-2.157-.323-.408-.816-.618-1.461-.618a1.758 1.758 0 0 0-1.455.713c-.378.474-.566 1.163-.566 2.062v9.745c0 .276-.11.533-.305.725-.195.192-.463.3-.736.3h-6.898c-.28 0-.542-.108-.742-.3a1.022 1.022 0 0 1-.305-.725V8.02c0-.27.11-.533.305-.725.194-.192.462-.3.736-.3h6.672ZM94.906 27.233c-.273 0-.541-.108-.736-.3a1.022 1.022 0 0 1-.304-.725v-1.205h-.073c-.518.744-1.291 1.39-2.314 1.942-1.029.552-2.197.827-3.525.827-1.448 0-2.642-.251-3.58-.749a6.258 6.258 0 0 1-2.233-1.966 7.642 7.642 0 0 1-1.17-2.732 14.403 14.403 0 0 1-.334-3.021V8.019c0-.276.11-.534.305-.725.2-.192.462-.3.742-.3h6.934c.28 0 .548.108.743.3.194.191.304.455.304.725v9.667c0 1.025.158 1.744.487 2.151.323.408.81.618 1.455.618a1.785 1.785 0 0 0 1.461-.713c.371-.474.566-1.163.566-2.056V8.019c0-.138.025-.27.08-.396a.964.964 0 0 1 .225-.335.905.905 0 0 1 .334-.222 1 1 0 0 1 .402-.078h6.904c.28 0 .541.108.742.3.195.191.305.455.305.725v18.19a.964.964 0 0 1-.299.72 1.023 1.023 0 0 1-.736.3l-6.684.01Z" fill="#00AA45"></path></mask><g mask="url(#a)"><path d="M155.692-2H80.357v38h75.335V-2Z" fill="#005BBB"></path><path d="M155.692 17H80.357v19h75.335V17Z" fill="#FFD500"></path></g></svg>